<svg width="94" height="97" viewBox="0 0 94 97" fill="none" xmlns="http://www.w3.org/2000/svg">
<path d="M16.4827 43.573C16.6279 35.829 19.8145 27.753 27.9696 21.9206C36.1245 16.0885 44.768 15.7185 52.0988 18.1307C59.4375 20.5457 65.4518 25.7464 68.3302 31.0358C72.7262 39.1202 73.0224 45.5392 72.3754 50.5767C72.051 53.1024 71.4902 55.2781 71.0816 57.1642C70.6762 59.036 70.4147 60.6442 70.7305 61.9813L70.7329 61.988L70.7346 61.9955C71.6868 65.0462 72.809 68.0405 74.0958 70.9641L58.7741 81.8869C56.7526 79.9766 54.6398 78.167 52.4408 76.4678L51.4739 75.7321L51.4624 75.7247C50.3153 74.9801 48.7218 74.6953 46.8328 74.4613C44.9293 74.2255 42.7036 74.039 40.228 73.5129C35.2905 72.4637 29.3711 70.0635 23.2544 63.2159L23.2536 63.2153C19.2399 58.7365 16.3373 51.3255 16.4827 43.573Z" fill="#FFC727" stroke="black" strokeWidth="0.4"/>
<path d="M40.9071 59.041L63.0945 80.7021L63.7697 80.0016L41.5824 58.3405L40.9071 59.041Z" fill="white"/>
<path d="M57.7498 46.8341L70.6831 75.0891L71.564 74.6809L58.6306 46.4258L57.7498 46.8341Z" fill="white"/>
<path d="M56.2126 60.2988C56.023 60.5691 55.7892 60.805 55.5212 60.9967C54.3 61.8674 52.3818 61.7709 50.1156 60.727C50.0304 60.6625 49.9373 60.5921 49.8113 60.5821C49.7977 60.9051 49.7176 61.2217 49.5759 61.5118C49.4343 61.802 49.2343 62.0593 48.9886 62.2675C46.6531 63.9311 42.3058 59.7608 42.1217 59.5848L42.4597 59.23C42.5062 59.2653 46.6965 63.3046 48.704 61.8689C48.915 61.6748 49.0808 61.4361 49.1894 61.17C49.2981 60.9039 49.3469 60.6169 49.3325 60.3296C46.9077 58.9946 44.4763 56.7265 44.3117 55.0143C44.2802 54.7431 44.3232 54.4683 44.4361 54.22C44.5489 53.9717 44.7272 53.7593 44.9517 53.6059C45.9709 52.8753 47.1497 53.2792 48.1623 54.7175C49.2096 56.2999 49.7934 58.1469 49.8469 60.0473C49.9864 60.1529 50.1532 60.2059 50.316 60.2803C51.5373 60.8385 53.796 61.6324 55.2366 60.598C56.2131 59.9084 56.6378 58.4469 56.458 56.4789C56.4427 56.3208 56.4255 56.149 56.3947 55.9791C54.6101 55.4737 53.0595 54.3517 52.0151 52.8102C50.7856 51.0612 50.6732 49.5228 51.7235 48.7669C51.929 48.6244 52.1691 48.5408 52.4182 48.525C52.6673 48.5092 52.9159 48.5619 53.1376 48.6773C54.6788 49.3921 56.3196 52.5394 56.8238 55.5835C57.5338 55.6911 58.2578 55.5233 58.8495 55.1141C60.2784 54.0952 59.1221 49.7637 58.5597 48.1778L59.008 48.0164C59.1046 48.2606 61.1552 54.0751 59.1341 55.5127C58.4803 55.9636 57.6862 56.1608 56.8989 56.0677L56.9372 56.4387C57.1527 57.7712 56.8963 59.1374 56.2126 60.2988ZM51.7809 49.3721C51.198 50.1521 51.751 51.4745 52.4519 52.4692C53.4046 53.8335 54.7609 54.8603 56.3275 55.4031C55.8191 52.5757 54.3021 49.6687 52.9393 49.0401C52.7956 48.9593 52.632 48.9217 52.4677 48.9314C52.3034 48.9412 52.1453 48.9981 52.0121 49.0953C51.9129 49.1805 51.8289 49.282 51.7634 49.3955L51.7809 49.3721ZM45.0266 54.1877C44.9493 54.2899 44.8928 54.4064 44.8603 54.5307C44.8279 54.6549 44.8201 54.7844 44.8375 54.9116C44.9832 56.2432 46.9919 58.3623 49.3857 59.7226C49.2829 58.0201 48.7386 56.3743 47.8071 54.9492C47.3134 54.2457 46.3274 53.1941 45.2635 53.9518C45.1572 54.0343 45.0636 54.1322 44.9858 54.2423L45.0266 54.1877Z" fill="white"/>
<path d="M75.7011 69.0927L56.478 82.8103L59.1431 86.5925L78.3661 72.8749L75.7011 69.0927Z" fill="#494946"/>
<path d="M78.7873 73.4895L59.5642 87.207L62.2293 90.9892L81.4523 77.2716L78.7873 73.4895Z" fill="#494946"/>
<path d="M81.8844 77.8867L62.6614 91.6042L65.3264 95.3864L84.5495 81.6689L81.8844 77.8867Z" fill="#494946"/>
<path d="M18.3406 9.52678L22.7661 15.7981L23.5568 15.233L19.1313 8.96171L18.3406 9.52678Z" fill="#222221"/>
<path d="M4.72487 26.0825L4.32031 26.9695L11.266 30.1791L11.6705 29.2921L4.72487 26.0825Z" fill="#222221"/>
<path d="M0.672901 48.139L0.763428 49.1108L8.37239 48.3943L8.28187 47.4225L0.672901 48.139Z" fill="#222221"/>
<path d="M8.21799 69.3104L8.77905 70.1067L15.0127 65.6584L14.4516 64.8621L8.21799 69.3104Z" fill="#222221"/>
<path d="M28.3896 76.8788L25.2017 83.8684L26.0831 84.2757L29.271 77.2861L28.3896 76.8788Z" fill="#222221"/>
<path d="M78.9538 40.9139L79.0442 41.8857L86.6533 41.1706L86.5629 40.1988L78.9538 40.9139Z" fill="#222221"/>
<path d="M72.3786 23.6588L72.9397 24.4551L79.1733 20.0068L78.6123 19.2105L72.3786 23.6588Z" fill="#222221"/>
<path d="M61.2363 5.02531L58.0483 12.0149L58.9298 12.4222L62.1177 5.43262L61.2363 5.02531Z" fill="#222221"/>
<path d="M39.2026 1.50586L39.9226 9.16309L40.8881 9.07131L40.1681 1.41409L39.2026 1.50586Z" fill="#222221"/>
</svg>
