<svg width="84" height="84" viewBox="0 0 84 84" fill="none" xmlns="http://www.w3.org/2000/svg">
<g clip-path="url(#clip0_467_9913)">
<path d="M84 0H0V84H84V0Z" fill="#FFC727"/>
<path d="M52.0951 41.8509H31.9049C31.6111 41.8509 31.3357 41.7711 31.0995 41.6322C30.6298 41.3558 30.3145 40.8449 30.3145 40.2604V20.0702C30.3145 19.631 30.4925 19.2334 30.7803 18.9456C31.0681 18.6578 31.4658 18.4797 31.9049 18.4797H52.0951C52.5343 18.4797 52.9318 18.6578 53.2196 18.9456C53.5074 19.2334 53.6854 19.631 53.6854 20.0702V40.2604C53.6854 40.6569 53.5403 41.0196 53.3004 41.298C53.0087 41.6365 52.577 41.8509 52.0951 41.8509Z" fill="#CBD8D3"/>
<path d="M31.412 41.1012C31.5605 41.1885 31.7308 41.2346 31.9047 41.2346H52.095C52.3787 41.2346 52.648 41.1111 52.8335 40.8959C52.9854 40.7196 53.0692 40.4938 53.0692 40.2605V20.0703C53.0692 19.81 52.9679 19.5654 52.7839 19.3815C52.6 19.1975 52.3554 19.0962 52.0951 19.0962H31.9047C31.6445 19.0962 31.3999 19.1975 31.2159 19.3815C31.032 19.5654 30.9307 19.81 30.9307 20.0703V40.2605C30.9307 40.6044 31.115 40.9264 31.412 41.1012Z" fill="white"/>
<path d="M41.9999 39.8689C47.359 39.8689 51.7034 35.5245 51.7034 30.1654C51.7034 24.8063 47.359 20.4619 41.9999 20.4619C36.6408 20.4619 32.2964 24.8063 32.2964 30.1654C32.2964 35.5245 36.6408 39.8689 41.9999 39.8689Z" fill="#CBD8D3"/>
<path d="M48.5379 36.7039C52.149 33.0928 52.149 27.2382 48.5379 23.6272C44.9269 20.0161 39.0722 20.0161 35.4612 23.6272C31.8502 27.2382 31.8502 33.0928 35.4612 36.7039C39.0722 40.3149 44.9269 40.3149 48.5379 36.7039Z" fill="#47587C"/>
<path d="M41.9999 38.6526C46.6872 38.6526 50.4871 34.8528 50.4871 30.1654C50.4871 25.4781 46.6872 21.6782 41.9999 21.6782C37.3125 21.6782 33.5127 25.4781 33.5127 30.1654C33.5127 34.8528 37.3125 38.6526 41.9999 38.6526Z" fill="#FF6969"/>
<path d="M42.0001 38.1002C46.3822 38.1002 49.9347 34.5478 49.9347 30.1656C49.9347 25.7834 46.3822 22.231 42.0001 22.231C37.6179 22.231 34.0654 25.7834 34.0654 30.1656C34.0654 34.5478 37.6179 38.1002 42.0001 38.1002Z" fill="#DD2F2F"/>
<path d="M41.9998 36.9274C45.3116 36.9274 47.9963 34.2427 47.9963 30.931C47.9963 27.6193 45.3116 24.9346 41.9998 24.9346C38.6881 24.9346 36.0034 27.6193 36.0034 30.931C36.0034 34.2427 38.6881 36.9274 41.9998 36.9274Z" fill="#BC2828"/>
<path d="M41.9998 36.162C45.3116 36.162 47.9963 33.4773 47.9963 30.1656C47.9963 26.8539 45.3116 24.1692 41.9998 24.1692C38.6881 24.1692 36.0034 26.8539 36.0034 30.1656C36.0034 33.4773 38.6881 36.162 41.9998 36.162Z" fill="#FF6969"/>
<path d="M42.0001 35.82C45.1229 35.82 47.6545 33.2884 47.6545 30.1656C47.6545 27.0428 45.1229 24.5112 42.0001 24.5112C38.8773 24.5112 36.3457 27.0428 36.3457 30.1656C36.3457 33.2884 38.8773 35.82 42.0001 35.82Z" fill="#E55A5A"/>
<path d="M42.0001 24.7243C45.0871 24.7243 47.5946 27.1986 47.6518 30.272C47.6524 30.2364 47.6545 30.2011 47.6545 30.1654C47.6545 27.0426 45.1229 24.511 42.0001 24.511C38.8773 24.511 36.3457 27.0426 36.3457 30.1654C36.3457 30.2011 36.3477 30.2364 36.3484 30.272C36.4055 27.1986 38.9131 24.7243 42.0001 24.7243Z" fill="#DD2F2F"/>
<path d="M41.9999 23.0096C46.2515 23.0096 49.7217 26.3536 49.9248 30.5548C49.931 30.4258 49.9347 30.2959 49.9347 30.1654C49.9347 25.7831 46.3822 22.2307 42.0001 22.2307C37.618 22.2307 34.0654 25.7832 34.0654 30.1654C34.0654 30.2959 34.069 30.4258 34.0753 30.5548C34.2781 26.3536 37.7483 23.0096 41.9999 23.0096Z" fill="#BC2828"/>
<path opacity="0.2" d="M74.3242 80.0063L67.5876 61.3561L67.3971 61.425L66.1243 57.9012L64.2521 58.5774L64.2684 48.8094C64.2688 48.6241 64.261 48.4391 64.2452 48.255C64.2215 47.9788 64.1799 47.7046 64.1206 47.4339C64.0613 47.1633 63.9842 46.8965 63.8897 46.6351L63.1077 44.4701L60.9427 38.4762C60.9111 38.3888 60.8741 38.3047 60.834 38.2227C60.8217 38.1976 60.8078 38.174 60.7948 38.1494C60.7648 38.0926 60.7334 38.0369 60.6994 37.9829C60.6833 37.9576 60.6667 37.9329 60.6497 37.9082C60.6139 37.8556 60.5765 37.8049 60.5373 37.7556C60.5208 37.735 60.5047 37.7143 60.4876 37.6943C60.4394 37.6374 60.3888 37.5831 60.336 37.531C60.3265 37.5214 60.3176 37.5114 60.3078 37.502C60.1736 37.3733 60.0264 37.2605 59.8692 37.1646C59.8665 37.1629 59.8638 37.1616 59.8611 37.1599C59.7858 37.1144 59.7081 37.0734 59.6286 37.0359C59.621 37.0324 59.6135 37.029 59.6059 37.0255C59.5278 36.9897 59.448 36.9581 59.3667 36.9306C59.3637 36.9296 59.3606 36.9281 59.3576 36.9271L59.3578 36.9276C58.8872 36.7708 58.3693 36.7537 57.8658 36.9192C57.1407 37.1577 56.6088 37.7012 56.3549 38.3566C56.3533 38.3529 56.3511 38.3495 56.3494 38.3458C56.2931 38.2235 56.2266 38.1088 56.1532 38.0001C56.147 37.9908 56.1416 37.9811 56.1352 37.972C56.1024 37.925 56.067 37.8803 56.0314 37.8361C56.0223 37.8249 56.0139 37.8129 56.0047 37.802C55.9669 37.7568 55.9269 37.7141 55.8862 37.6721C55.8782 37.6639 55.8706 37.6552 55.8625 37.6469C55.8192 37.6036 55.774 37.5624 55.7278 37.5226C55.7218 37.5174 55.7159 37.5119 55.7097 37.5067C55.6609 37.4655 55.6105 37.4267 55.5588 37.3896C55.5551 37.3869 55.5514 37.384 55.5475 37.3813C55.4936 37.343 55.4382 37.3072 55.3816 37.2735C55.38 37.2725 55.3784 37.2716 55.3769 37.2706C55.3184 37.236 55.2587 37.2041 55.1978 37.1745C54.6282 36.8987 53.9536 36.8415 53.3111 37.0736C52.6218 37.3225 52.1156 37.8511 51.8695 38.4844C51.8692 38.4854 51.8685 38.4864 51.8682 38.4874C51.8369 38.4186 51.8025 38.352 51.7655 38.2875C51.7496 38.2595 51.7314 38.2333 51.7145 38.206C51.6926 38.1713 51.6716 38.136 51.6483 38.1026C51.6239 38.0674 51.5974 38.0345 51.5713 38.0011C51.5535 37.9784 51.5365 37.9549 51.5181 37.9329C51.486 37.8946 51.452 37.8585 51.4179 37.8223C51.404 37.8077 51.3905 37.7924 51.3763 37.7781C51.3368 37.7385 51.2956 37.701 51.2538 37.6644C51.2441 37.656 51.2345 37.6471 51.2246 37.6389C51.178 37.5994 51.13 37.5623 51.0808 37.5265C51.075 37.5225 51.0695 37.5183 51.0638 37.5142C51.0109 37.4766 50.9568 37.4413 50.9012 37.408C50.8988 37.4067 50.8965 37.4052 50.8941 37.4038C50.836 37.3692 50.7765 37.3371 50.7159 37.3076C50.1453 37.0297 49.4688 36.9714 48.8243 37.2043C48.0391 37.4878 47.4894 38.1335 47.2939 38.8848L43.4799 28.326C43.4709 28.3008 43.4591 28.2772 43.4494 28.2524C43.3321 27.9569 43.1643 27.6926 42.958 27.4682C42.9571 27.4671 42.9561 27.4663 42.9553 27.4655C42.9047 27.4107 42.8523 27.3581 42.7975 27.3082C42.7948 27.3057 42.792 27.3035 42.7891 27.301C42.7357 27.2528 42.6808 27.2066 42.6236 27.1632C42.6198 27.1602 42.6156 27.1577 42.6117 27.1547C42.5551 27.1122 42.4973 27.0717 42.4375 27.0342C42.4341 27.032 42.4306 27.0303 42.4272 27.0282C41.8508 26.67 41.1382 26.5467 40.4485 26.7597C39.1101 27.1731 38.4023 28.6144 38.8727 29.9169L45.5231 48.3285C45.6969 48.8095 45.5124 49.2964 45.1534 49.5684C45.1359 49.5817 45.1174 49.5934 45.0991 49.6055C45.0835 49.6159 45.068 49.6263 45.0519 49.6359C45.0336 49.6468 45.0149 49.6571 44.996 49.6668C44.9773 49.6764 44.9583 49.6853 44.939 49.6939C44.9214 49.7018 44.9037 49.71 44.8856 49.7169C44.8495 49.7307 44.8128 49.7429 44.7749 49.7528C44.7629 49.756 44.7503 49.7577 44.7382 49.7606C44.7083 49.7673 44.6781 49.7732 44.6472 49.7772C44.6319 49.7792 44.6164 49.7806 44.601 49.7821C44.5708 49.7848 44.5402 49.7863 44.5093 49.7863C44.4952 49.7864 44.481 49.7868 44.4669 49.7863C44.4219 49.7848 44.3765 49.7814 44.3303 49.7742L42.9405 47.0803C42.8872 46.977 42.8299 46.8764 42.7701 46.7779C42.7522 46.7482 42.7325 46.7198 42.714 46.6905C42.6703 46.6218 42.626 46.5538 42.5791 46.4876C42.5571 46.4564 42.5339 46.4261 42.5112 46.3954C42.4642 46.332 42.4163 46.2697 42.3666 46.2087C42.3437 46.1808 42.3206 46.1533 42.2972 46.1261C42.2431 46.0626 42.1875 46.0009 42.1304 45.9404C42.1097 45.9186 42.0894 45.8967 42.0684 45.8754C42.0012 45.8067 41.932 45.7402 41.8611 45.6755C41.849 45.6644 41.8372 45.653 41.825 45.6421C41.5602 45.4053 41.2712 45.1979 40.9631 45.0225C40.3508 44.674 39.6636 44.4518 38.9402 44.3856C38.2214 44.3199 37.6814 45.029 37.9361 45.7046L38.3324 46.7557L38.8278 48.0698L40.7086 53.0588C41.2899 54.6008 42.377 55.9001 43.7924 56.7443L53.1653 62.5817L51.1125 63.3231L52.3853 66.8468L52.1948 66.9157L58.3654 83.9998H61.9641H75.7667L74.3242 80.0063Z" fill="#374763"/>
<path d="M62.5648 38.4764C62.1127 37.225 60.7517 36.5038 59.4877 36.9196C58.7626 37.1581 58.2305 37.7016 57.9768 38.357C57.4567 37.2117 56.1366 36.6392 54.933 37.0739C54.2425 37.3233 53.7359 37.8531 53.4901 38.4878C52.9699 37.3426 51.6498 36.77 50.4462 37.2048C49.661 37.4884 49.1113 38.134 48.9158 38.8853L45.1018 28.3265C44.6561 27.0924 43.3241 26.3732 42.0704 26.7603C40.732 27.1737 40.0242 28.615 40.4946 29.9175L47.145 48.3291C47.4263 49.1076 46.7702 49.9029 45.9524 49.7747L44.5626 47.0809C43.777 45.5583 42.2685 44.542 40.5623 44.3861C39.8434 44.3205 39.3035 45.0296 39.5582 45.7051L42.3307 53.0595C42.9119 54.6016 43.9991 55.9009 45.4145 56.7451L54.7874 62.5824L65.8744 58.5776L65.8906 48.8096C65.8918 48.0684 65.7636 47.3325 65.5118 46.6353L62.5648 38.4764Z" fill="#FFC85A"/>
<path d="M62.5648 38.4764C62.1127 37.225 60.7517 36.5038 59.4877 36.9196C58.7626 37.1581 58.2305 37.7016 57.9768 38.357C57.4567 37.2117 56.1366 36.6392 54.933 37.0739C54.2425 37.3233 53.7359 37.8531 53.4901 38.4878C52.9699 37.3426 51.6498 36.77 50.4462 37.2048C49.661 37.4884 49.1113 38.134 48.9158 38.8853L45.1018 28.3265C44.6561 27.0924 43.3241 26.3732 42.0704 26.7603C40.732 27.1737 40.0242 28.615 40.4946 29.9175L47.145 48.3291C47.4263 49.1076 46.7702 49.9029 45.9524 49.7747L44.5626 47.0809C43.777 45.5583 42.2685 44.542 40.5623 44.3861C39.8434 44.3205 39.3035 45.0296 39.5582 45.7051L42.3307 53.0595C42.9119 54.6016 43.9991 55.9009 45.4145 56.7451L54.7874 62.5824L65.8744 58.5776L65.8906 48.8096C65.8918 48.0684 65.7636 47.3325 65.5118 46.6353L62.5648 38.4764Z" fill="#FFBA7B"/>
<path opacity="0.4" d="M43.7939 29.0173L41.9939 29.6674C41.7394 29.7593 41.4585 29.6276 41.3666 29.3731L41.119 28.6875C40.9876 28.3239 41.1759 27.9226 41.5395 27.7914L42.9443 27.284C43.3079 27.1527 43.7092 27.341 43.8404 27.7045L44.088 28.3901C44.1803 28.6445 44.0484 28.9252 43.7939 29.0173Z" fill="white"/>
<path opacity="0.4" d="M40.4502 48.0703L41.4986 47.8289C41.8516 47.7476 42.0426 47.3645 41.8953 47.0338L41.6735 46.536C41.4605 46.0577 40.9824 45.7528 40.4589 45.7612L39.585 45.7754L40.4502 48.0703Z" fill="white"/>
<path d="M49.3267 41.0423C49.5048 40.978 49.5968 40.7816 49.5325 40.6037L45.0714 28.2532C44.8365 27.6616 44.3974 27.1953 43.8623 26.9231L48.888 40.8365C48.9524 41.0144 49.1488 41.1065 49.3267 41.0423Z" fill="#F49D56"/>
<path d="M53.7829 40.2994C53.9608 40.2351 54.053 40.0387 53.9887 39.8608L53.4917 38.485C53.4914 38.486 53.4907 38.487 53.4904 38.488C53.2486 37.9558 52.8332 37.5496 52.3379 37.3083L53.344 40.0938C53.4084 40.2715 53.6048 40.3638 53.7829 40.2994Z" fill="#F49D56"/>
<path d="M58.0235 39.4985C58.2016 39.4341 58.2937 39.2378 58.2293 39.0598L57.9716 38.3463C57.7285 37.8178 57.3137 37.4143 56.8198 37.175L57.5847 39.2929C57.6492 39.4706 57.8456 39.5628 58.0235 39.4985Z" fill="#F49D56"/>
<path d="M44.8103 49.6205C44.8103 49.6205 46.3858 50.1259 46.7755 49.5691C46.5534 49.7373 46.2652 49.824 45.9527 49.7749L44.5628 47.081C44.1104 46.2041 43.4172 45.4964 42.5854 45.0232L44.8103 49.6205Z" fill="#F49D56"/>
<path d="M60.9795 36.9275L64.451 46.4104C64.8462 47.4897 65.0416 48.6315 65.0281 49.7807L64.9203 58.9222L65.8743 58.5777L65.8906 48.8096C65.8918 48.0684 65.7636 47.3326 65.5118 46.6354L62.5647 38.4765C62.2927 37.7233 61.6908 37.164 60.9795 36.9275Z" fill="#F49D56"/>
<path d="M54.6003 68.4804L69.6118 63.0583L67.7493 57.9017L52.7378 63.3237L54.6003 68.4804Z" fill="#DDDDDD"/>
<path d="M54.5972 68.4804L65.9212 64.3901C66.6082 64.142 67.1352 63.6481 67.4391 63.0433C67.7653 62.3943 67.8344 61.6176 67.5681 60.8805C67.3203 60.1945 66.8272 59.6678 66.2234 59.3636C65.5739 59.0365 64.7964 58.9668 64.0584 59.2334L52.7344 63.3237L54.5972 68.4804Z" fill="white"/>
<path d="M75.9464 80.0066L59.9875 84.0002L53.8169 66.9164L69.2097 61.3564L75.9464 80.0066Z" fill="#47587C"/>
<path d="M77.389 84.0002H59.9875L53.8169 66.9164L69.2097 61.3564L77.389 84.0002Z" fill="#47587C"/>
<path d="M77.389 84.0002L73.2947 83.8174L65.2759 62.7774L69.2098 61.3564L77.389 84.0002Z" fill="#374763"/>
<path d="M63.5864 84.0001H59.9875L53.8169 66.9164L57.0003 65.7666L63.5864 84.0001Z" fill="#597099"/>
</g>
<rect x="1.5" y="1.5" width="81" height="81" rx="40.5" stroke="black" stroke-width="3"/>
<defs>
<clipPath id="clip0_467_9913">
<rect width="84" height="84" rx="42" fill="white"/>
</clipPath>
</defs>
</svg>
