<svg width="120" height="104" viewBox="0 0 120 104" fill="none" xmlns="http://www.w3.org/2000/svg">
<path d="M40.4268 22.4519C62.6434 22.4519 80.6542 40.4618 80.6543 62.6785C80.6543 84.8952 62.6435 102.906 40.4268 102.906C18.2101 102.906 0.200195 84.8952 0.200195 62.6785C0.20034 40.4619 18.2102 22.452 40.4268 22.4519Z" fill="#72D560" stroke="black" strokeWidth="0.4"/>
<path d="M40.4268 37.3955C54.3904 37.3955 65.7109 48.7151 65.7109 62.6787C65.7109 76.6424 54.3905 87.9629 40.4268 87.9629C26.4631 87.9628 15.1436 76.6424 15.1436 62.6787C15.1436 48.7151 26.4632 37.3956 40.4268 37.3955Z" fill="white" stroke="black" strokeWidth="0.4"/>
<path d="M31.0196 53.2726C36.2146 48.0775 44.6372 48.0775 49.8323 53.2726C55.0274 58.4677 55.0274 66.8902 49.8323 72.0853C44.6372 77.2804 36.2146 77.2804 31.0196 72.0853C25.8245 66.8902 25.8245 58.4676 31.0196 53.2726Z" fill="#72D560" stroke="black" strokeWidth="0.4"/>
<path d="M40.5298 62.7313C45.4003 56.7363 50.8513 51.5479 56.4681 46.5915C62.0929 41.645 67.9675 37.048 74.0198 32.6969C80.0681 28.3398 86.2833 24.2168 92.697 20.3702C99.1482 16.5749 105.718 12.9435 112.824 10.0605L113.525 11.036C108.524 16.8504 102.985 21.9163 97.3295 26.8184C91.6366 31.6681 85.7443 36.2424 79.685 40.5827C73.6298 44.9289 67.3968 49.0292 60.9141 52.7801C54.4234 56.521 47.7669 60.03 40.5298 62.7313Z" fill="#FEEBB6"/>
<path d="M112.166 10.8059L90.203 22.4899L88.2185 18.0321L99.3802 1.48359C102.011 -0.984717 106.269 -0.279766 107.964 2.90534L112.166 10.8059Z" fill="#E5B323"/>
<path d="M112.545 11.2454L94.1533 27.9983L97.684 31.367L117.023 26.4225C120.232 24.7747 121.001 20.5282 118.571 17.8614L112.545 11.2454Z" fill="#E5B323"/>
<path d="M57.7951 45.458C57.3548 45.8381 56.9055 46.2074 56.4681 46.5924C50.8513 51.5488 45.4003 56.7372 40.5298 62.7322C47.7659 60.0299 54.4234 56.521 60.9131 52.78C61.3208 52.544 61.7187 52.2952 62.1245 52.0563L57.7951 45.458Z" fill="#926D02"/>
<path d="M61.4028 45.4581L99.1462 19.7383C99.1462 19.7383 78.2387 29.7961 61.4028 45.4581Z" fill="white"/>
</svg>
