<svg width="116" height="84" viewBox="0 0 116 84" fill="none" xmlns="http://www.w3.org/2000/svg">
<g clip-path="url(#clip0_467_9877)">
<rect width="84" height="84" rx="42" fill="#FFC727"/>
<path d="M63.2561 40.5121C64.4032 38.9827 65.9327 37.9633 65.6773 35.9238C65.4226 33.8842 63.8932 33.5019 61.9813 33.8842C63.8932 31.2077 63.7654 27.1294 59.5594 28.7858C61.2166 25.0898 57.6476 21.9032 54.5887 24.9621C54.7164 22.9226 54.2063 20.6284 52.0398 20.1191C49.8734 19.7367 48.2162 20.8838 47.4515 22.7956C47.1968 21.1385 46.4321 19.3544 44.5202 19.4821C42.8631 19.6098 41.5883 21.2662 41.716 22.9233C41.079 21.1392 39.0394 19.8644 37.2553 20.2468C34.8334 20.7569 34.5788 22.7956 34.5788 24.8352C32.8 22.7505 29.7349 22.7956 29.2256 25.7276C29.127 26.1199 29.0559 27.6716 29.1262 28.057C25.7079 27.0361 22.6421 30.5018 24.3306 34.8417C20.7088 33.9745 18.0002 38.5147 21.1952 41.0222C19.9204 42.0416 18.6456 42.297 18.1363 44.2088C17.7539 45.7383 18.1363 47.2678 19.7927 47.7779C17.1161 49.8174 18.6456 54.1503 21.9599 54.0234C19.028 55.5529 23.107 60.5236 26.2929 58.1017C25.4012 60.906 28.7148 61.4153 30.6266 61.2883C33.1755 61.1606 35.215 59.7589 37.7638 58.8664C40.5681 57.974 43.627 57.2093 46.5582 56.9546C47.7053 56.8269 49.1079 56.9546 50.255 56.8269C50.4293 56.7772 50.5922 56.7053 50.7513 56.6265C51.5504 56.8636 52.306 57.0196 52.9315 57.0816C54.8433 57.3362 61.5982 56.0622 59.5587 52.8755C62.7453 52.1108 65.9319 49.562 62.6176 46.63C63.8924 45.7375 65.5496 45.2282 65.9319 43.4434C66.3143 41.6585 65.0403 40.2575 63.2561 40.5121Z" fill="black"/>
<path d="M38.2749 81.0435C38.9119 80.7889 39.6767 80.5334 40.4414 80.2788C42.0986 79.8964 42.8633 79.8964 43.2456 77.9846C44.265 73.7786 45.5398 65.2388 45.5398 65.2388C47.197 64.8565 49.6182 64.6018 51.1476 64.6018C51.6577 67.533 52.6771 77.6022 53.5695 77.9846C54.0796 78.2392 57.2655 77.4745 57.7755 77.2199C58.2856 79.514 54.8443 94.9364 52.04 94.0439L38.2749 81.0435Z" fill="#A5795B"/>
<path d="M58.6037 54.6604C57.3931 50.8367 56.4372 46.503 56.246 42.4882C56.1825 40.704 55.9271 38.9192 55.3535 37.1985C55.154 36.4499 54.7593 35.8564 54.3525 35.2362C53.9594 35.3884 53.5694 35.4955 53.3148 35.5414C52.2954 35.6691 51.4029 35.2225 50.7025 34.522C50.1289 36.9439 47.707 37.4532 46.1775 35.4144C45.7952 37.3262 43.501 38.728 41.9715 36.9439C42.0992 39.1103 39.0403 39.8116 37.5743 38.7922C38.0202 40.8318 36.4907 41.5965 34.8978 42.1058C36.5549 43.1252 36.236 45.4194 34.3242 45.7383C35.4713 46.1841 35.8537 46.8854 35.9172 48.0959C35.9814 48.9884 35.6625 50.5813 34.4519 50.4536C35.726 50.5171 35.9814 52.5566 35.7902 53.5125C35.7137 54.083 35.4989 54.6046 35.1509 55.003C35.5027 55.9237 35.8514 56.8307 36.1726 57.7185C36.6827 59.1845 36.5549 58.9933 37.2562 60.3316C38.0209 61.7976 38.9692 63.5825 40.3075 64.6011C42.6017 66.3217 47.0065 68.9348 49.8743 68.6159C53.1244 68.297 55.2274 65.8759 56.948 63.1994C57.7762 61.8611 59.3057 60.2039 59.4334 58.611C59.4961 57.2727 59.0503 55.9344 58.6037 54.6604Z" fill="#A5795B"/>
<path d="M49.4903 61.3519C50.5479 61.0636 51.3493 60.3753 51.3249 59.4263L44.583 61.2241C44.801 61.6019 45.077 61.9415 45.3883 62.2474C45.9014 62.1281 46.4344 61.9568 46.7495 61.9254C47.6427 61.7342 48.5986 61.543 49.4903 61.3519Z" fill="white"/>
<path d="M53.1868 58.9299L51.3255 59.4262C51.3492 60.3753 50.5478 61.0635 49.4909 61.3518C48.5992 61.543 47.6433 61.7342 46.7509 61.9254C46.4358 61.9567 45.9028 62.1288 45.3896 62.2473C46.4434 63.2843 47.9523 63.8862 49.4274 63.8372C50.8292 63.8372 51.8493 62.9448 52.4863 61.7342C52.8045 61.2241 53.505 59.2488 53.1868 58.9299Z" fill="#753C4A"/>
<path d="M49.8726 46.9487C50.1226 47.4489 50.4033 47.9031 50.7352 48.3382C51.0632 48.7749 51.3699 49.2444 51.7347 49.5786C52.1155 49.9365 52.5407 50.2738 52.9636 50.6569C53.3712 51.0546 53.8033 51.4851 54.0052 52.1512C54.2904 53.3962 53.9623 54.5524 53.4683 55.5833C53.2076 56.0949 52.878 56.579 52.4482 56.9713C52.0192 57.3445 51.4594 57.6611 50.8912 57.5915C51.4403 57.4829 51.8647 57.1342 52.1744 56.7151C52.4979 56.3044 52.7296 55.8257 52.9223 55.3409C53.099 54.8476 53.2496 54.3429 53.3108 53.8298C53.3811 53.3243 53.3964 52.7997 53.268 52.3577C53.1724 51.9524 52.8175 51.5432 52.4581 51.1739C52.0956 50.79 51.6666 50.4313 51.298 49.9847C50.8958 49.5259 50.6717 49.0196 50.414 48.531C50.1861 48.0239 49.9559 47.4978 49.8726 46.9487Z" fill="#664631"/>
<path d="M39.2305 44.8459C37.9557 44.7824 39.3574 43.3799 39.7398 43.1252C40.1864 42.8706 41.9071 42.1059 41.9071 43.1252C41.9071 43.6353 40.1222 44.2089 39.804 44.7182L39.2305 44.8459Z" fill="black"/>
<path d="M50.5103 38.9192C50.7649 38.2822 52.4221 38.4734 52.9956 38.6003C53.3138 38.728 54.0785 38.9192 54.015 39.4285C53.9515 40.0021 53.1868 39.6197 52.8044 39.5562C52.2309 39.4927 50.7014 39.6839 50.5103 39.2373V38.9192Z" fill="black"/>
<path d="M44.9459 48.9449C45.1264 49.7341 44.9146 50.456 44.471 50.5577C44.0282 50.6587 43.522 50.1019 43.3407 49.3135C43.1603 48.5243 43.3721 47.8016 43.8156 47.7007C44.2592 47.599 44.7654 48.1565 44.9459 48.9449Z" fill="black"/>
<path d="M54.4857 46.7783C54.6662 47.5675 54.4459 48.2917 53.9924 48.395C53.539 48.499 53.0251 47.9438 52.8446 47.1546C52.6633 46.3654 52.8844 45.6412 53.3378 45.5372C53.7906 45.4332 54.3052 45.9891 54.4857 46.7783Z" fill="black"/>
<path d="M36.4264 55.5521C34.1964 54.7239 31.838 56.0622 31.4556 58.3563C31.1375 59.9493 31.201 61.543 32.5393 62.5624C33.6864 63.4548 35.2793 63.646 36.6818 63.2636C37.6377 62.9447 38.5294 62.18 39.1029 61.4153L36.4264 55.5521Z" fill="#A5795B"/>
</g>
<rect x="1.5" y="1.5" width="81" height="81" rx="40.5" stroke="black" stroke-width="3"/>
<path d="M98.0002 26.6666C98.0002 27.197 98.2109 27.7057 98.5859 28.0808C98.961 28.4559 99.4697 28.6666 100 28.6666C100.531 28.6666 101.039 28.4559 101.414 28.0808C101.789 27.7057 102 27.197 102 26.6666V17.9999H110.667C111.197 17.9999 111.706 17.7892 112.081 17.4141C112.456 17.0391 112.667 16.5304 112.667 15.9999C112.667 15.4695 112.456 14.9608 112.081 14.5857C111.706 14.2106 111.197 13.9999 110.667 13.9999H102V5.33325C102 4.80282 101.789 4.29411 101.414 3.91904C101.039 3.54397 100.531 3.33325 100 3.33325C99.4697 3.33325 98.961 3.54397 98.5859 3.91904C98.2109 4.29411 98.0002 4.80282 98.0002 5.33325V13.9999H89.3335C88.8031 13.9999 88.2944 14.2106 87.9193 14.5857C87.5442 14.9608 87.3335 15.4695 87.3335 15.9999C87.3335 16.5304 87.5442 17.0391 87.9193 17.4141C88.2944 17.7892 88.8031 17.9999 89.3335 17.9999H98.0002V26.6666Z" fill="black"/>
<defs>
<clipPath id="clip0_467_9877">
<rect width="84" height="84" rx="42" fill="white"/>
</clipPath>
</defs>
</svg>
