<svg width="84" height="84" viewBox="0 0 84 84" fill="none" xmlns="http://www.w3.org/2000/svg">
<g clip-path="url(#clip0_467_9953)">
<rect width="84" height="84" rx="42" fill="#FFC727"/>
<path d="M5.00391 25.462L7.54892 22.5532V26.6752L5.00391 25.462Z" fill="#0082FF"/>
<path d="M23.9227 33.1213L22.939 30.9382L25.2617 31.9998L23.9227 33.1213Z" fill="#0082FF"/>
<path d="M11.1987 11.7537L13.4016 10.0625L14.1276 12.0103L11.1987 11.7537Z" fill="#DD30AC"/>
<path d="M2.5249 48.951L4.72773 47.2598L5.45419 49.2075L2.5249 48.951Z" fill="#DD30AC"/>
<path d="M10.2657 80.8771L9.06641 78.3719L11.1222 78.064L10.2657 80.8771Z" fill="#DD30AC"/>
<path d="M18.9051 44.6804L16.8955 44.1312L18.6843 41.8245L18.9051 44.6804Z" fill="#F9A101"/>
<path d="M16.7144 28.0605L15.3125 30.3371L17.9 30.6949L16.7144 28.0605Z" fill="#F9A101"/>
<path d="M2 63.7289L4.54502 60.8201V64.942L2 63.7289Z" fill="#0082FF"/>
<path d="M20.2899 63.0032L19.3062 60.8201L21.6289 61.8813L20.2899 63.0032Z" fill="#DD30AC"/>
<path d="M11.5142 69.0721L13.7174 67.3809L14.4434 69.3286L11.5142 69.0721Z" fill="#F9A101"/>
<path d="M12.979 53.7729L13.5632 55.3499L15.2768 53.0476L12.979 53.7729Z" fill="#0082FF"/>
<path d="M48.0294 4.24365L47.5367 7.30624L45.7383 5.00697L48.0294 4.24365Z" fill="#F9A101"/>
<path d="M31.4593 2.55443L30.4756 0.371338L32.7983 1.43291L31.4593 2.55443Z" fill="#DD30AC"/>
<path d="M49.9355 5.72192L50.5198 7.29883L52.2333 4.99658L49.9355 5.72192Z" fill="#0082FF"/>
<path d="M62.6249 6.45323L64.2741 6.12221L62.2671 4.07056L62.6249 6.45323Z" fill="#0082FF"/>
<path d="M21.417 77.6667L22.0012 79.244L23.1819 78.1009L21.417 77.6667Z" fill="#0082FF"/>
<path d="M5.4541 35.875L6.23939 37.1808L7.09803 35.9647L5.4541 35.875Z" fill="#F9A101"/>
<path d="M27.4609 22.8799L29.7636 23.4969L28.7065 21.8027L27.4609 22.8799Z" fill="#0082FF"/>
<path d="M77.4855 25.1494L74.9404 22.2402L75.8873 25.2019L77.4855 25.1494Z" fill="#0082FF"/>
<path d="M57.3292 35.8069L58.3129 33.6238L55.9902 34.685L57.3292 35.8069Z" fill="#0082FF"/>
<path d="M64.274 19.1627L62.0708 17.4714L61.3447 19.4192L64.274 19.1627Z" fill="#DD30AC"/>
<path d="M80.92 50.5257L78.7172 48.8345L77.9907 50.7822L80.92 50.5257Z" fill="#DD30AC"/>
<path d="M72.6621 80.8771L73.8614 78.3719L71.8057 78.064L72.6621 80.8771Z" fill="#DD30AC"/>
<path d="M58.5632 47.0404L57.8312 44.3613L56.0752 45.4732L58.5632 47.0404Z" fill="#DD30AC"/>
<path d="M67.9014 45.091L69.9109 44.5418L68.1222 42.2351L67.9014 45.091Z" fill="#F9A101"/>
<path d="M67.5048 30.8232L68.9063 33.0994L66.3188 33.4576L67.5048 30.8232Z" fill="#F9A101"/>
<path d="M82.0001 66.2776L79.4551 63.3684V67.4903L82.0001 66.2776Z" fill="#0082FF"/>
<path d="M61.4762 60.6428L62.4599 58.4597L60.1372 59.5209L61.4762 60.6428Z" fill="#DD30AC"/>
<path d="M68.0749 70.0457L65.8721 68.3545L65.146 70.3023L68.0749 70.0457Z" fill="#F9A101"/>
<path d="M69.5019 55.9038L68.9177 57.4807L67.2041 55.1785L69.5019 55.9038Z" fill="#0082FF"/>
<path d="M30.7327 5.16016L27.0591 6.36211L30.8515 7.97699L30.7327 5.16016Z" fill="#0082FF"/>
<path d="M34.2628 7.81298L35.2466 5.62988L32.9238 6.69108L34.2628 7.81298Z" fill="#DD30AC"/>
<path d="M47.8661 1.60596L47.2819 3.18324L45.5684 0.880615L47.8661 1.60596Z" fill="#F9A101"/>
<path d="M26.4101 12.4443L25.8259 14.0212L24.1123 11.719L26.4101 12.4443Z" fill="#F9A101"/>
<path d="M61.5105 77.6667L60.9263 79.244L59.7456 78.1009L61.5105 77.6667Z" fill="#0082FF"/>
<path d="M79.8382 38.1272L78.7145 39.996L77.4854 38.2557L79.8382 38.1272Z" fill="#F9A101"/>
<path d="M55.1483 24.7982L52.8457 25.4151L53.9024 23.7209L55.1483 24.7982Z" fill="#0082FF"/>
<path d="M79.4146 81.336H48.4287V22.8408C48.4287 22.0425 49.0759 21.3953 49.8743 21.3953H78.4946C79.2929 21.3953 79.9401 22.0425 79.9401 22.8408V80.8105C79.9401 81.1007 79.7049 81.336 79.4146 81.336Z" fill="url(#paint0_linear_467_9953)"/>
<path d="M43.9446 23.5161L65.1112 1.82604C65.4262 1.5032 65.9529 1.52953 66.2342 1.88213L83.8347 23.9434C84.2287 24.4372 83.873 25.1671 83.2413 25.161L44.4742 24.7899C43.814 24.7835 43.4835 23.9887 43.9446 23.5161Z" fill="url(#paint1_linear_467_9953)"/>
<path d="M64.2105 81.4376H33.2246V33.886C33.2246 33.0876 33.8718 32.4404 34.6702 32.4404H63.2905C64.0888 32.4404 64.736 33.0876 64.736 33.886V80.9121C64.736 81.2023 64.5008 81.4376 64.2105 81.4376Z" fill="#444441"/>
<path d="M44.087 81.4375H16.6235V49.0886C16.6235 48.2903 17.2707 47.6431 18.0691 47.6431H42.6415C43.4399 47.6431 44.087 48.2903 44.087 49.0886V81.4375Z" fill="url(#paint2_linear_467_9953)"/>
<path d="M23.6647 81.4375H0.525477C0.235258 81.4375 0 81.2023 0 80.912V59.0139C0 58.2156 0.647191 57.5684 1.44557 57.5684H22.2191C23.0175 57.5684 23.6647 58.2156 23.6647 59.0139V81.4375Z" fill="#444441"/>
</g>
<rect x="1.5" y="1.5" width="81" height="81" rx="40.5" stroke="black" stroke-width="3"/>
<defs>
<linearGradient id="paint0_linear_467_9953" x1="62.3659" y1="112.854" x2="74.082" y2="-49.5533" gradientUnits="userSpaceOnUse">
<stop stop-color="#BBEBB2"/>
<stop offset="1" stop-color="#72D560"/>
</linearGradient>
<linearGradient id="paint1_linear_467_9953" x1="61.541" y1="37.5499" x2="62.9642" y2="-26.589" gradientUnits="userSpaceOnUse">
<stop stop-color="#BBEBB2"/>
<stop offset="1" stop-color="#72D560"/>
</linearGradient>
<linearGradient id="paint2_linear_467_9953" x1="28.7704" y1="99.2072" x2="33.0564" y2="7.36586" gradientUnits="userSpaceOnUse">
<stop stop-color="#BBEBB2"/>
<stop offset="1" stop-color="#72D560"/>
</linearGradient>
<clipPath id="clip0_467_9953">
<rect width="84" height="84" rx="42" fill="white"/>
</clipPath>
</defs>
</svg>
